<svg width="720" height="560" viewBox="0 0 720 560" fill="none" xmlns="http://www.w3.org/2000/svg">
  <defs>
    <linearGradient id="mRoadBg" x1="0" y1="0" x2="720" y2="560" gradientUnits="userSpaceOnUse">
      <stop stop-color="#F8FBFF"/>
      <stop offset="1" stop-color="#F1F5F9"/>
    </linearGradient>
  </defs>
  <rect width="720" height="560" rx="20" fill="url(#mRoadBg)"/>

  <text x="360" y="40" text-anchor="middle" font-size="18" font-weight="800" fill="#1E3A8A">Research Roadmap</text>
  <text x="360" y="64" text-anchor="middle" font-size="12" fill="#64748B">śÜ |t DĚ đl )Ą</text>

  <line x1="360" y1="100" x2="360" y2="500" stroke="#CBD5E1" stroke-width="3"/>

  <circle cx="360" cy="120" r="14" fill="#1D4ED8"/>
  <rect x="80" y="100" width="240" height="70" rx="12" fill="white" stroke="#93C5FD" stroke-width="2"/>
  <text x="200" y="128" text-anchor="middle" font-size="12" font-weight="700" fill="#1E3A8A">¬ · Human AI</text>
  <text x="200" y="150" text-anchor="middle" font-size="11" fill="#64748B">Digital Care Log</text>

  <circle cx="360" cy="230" r="14" fill="#4F46E5"/>
  <rect x="400" y="200" width="240" height="70" rx="12" fill="white" stroke="#C4B5FD" stroke-width="2"/>
  <text x="520" y="228" text-anchor="middle" font-size="12" font-weight="700" fill="#5B21B6">2027 · Pet Research</text>
  <text x="520" y="250" text-anchor="middle" font-size="11" fill="#7C3AED">0   0</text>

  <circle cx="360" cy="340" r="14" fill="#7C3AED"/>
  <rect x="80" y="310" width="240" height="70" rx="12" fill="white" stroke="#DDD6FE" stroke-width="2"/>
  <text x="200" y="338" text-anchor="middle" font-size="12" font-weight="700" fill="#5B21B6">Vision AI</text>
  <text x="200" y="360" text-anchor="middle" font-size="11" fill="#64748B">Behavior Translation</text>

  <circle cx="360" cy="450" r="14" fill="#B45309" stroke="#FDE68A" stroke-width="2" stroke-dasharray="3 2"/>
  <rect x="400" y="420" width="240" height="70" rx="12" fill="white" stroke="#FDE68A" stroke-width="2" stroke-dasharray="4 3"/>
  <text x="520" y="448" text-anchor="middle" font-size="12" font-weight="700" fill="#B45309">Robot Integration</text>
  <text x="520" y="470" text-anchor="middle" font-size="11" fill="#92400E">Ą0 Future Vision</text>
</svg>
