<svg width="1200" height="520" viewBox="0 0 1200 520" fill="none" xmlns="http://www.w3.org/2000/svg">
  <rect width="1200" height="520" rx="24" fill="#F8FBFF"/>
  <text x="600" y="40" text-anchor="middle" font-family="Apple SD Gothic Neo, Malgun Gothic, sans-serif" font-size="24" font-weight="800" fill="#1E3A8A">구현 가능 역량 매트릭스</text>
  <text x="600" y="68" text-anchor="middle" font-family="Apple SD Gothic Neo, Malgun Gothic, sans-serif" font-size="13" fill="#64748B">자람이/시니어/베지케어에서 검증된 기술을 Pet으로 이식 - Research 단계</text>

  <rect x="40" y="100" width="280" height="50" rx="10" fill="#1E3A8A"/>
  <text x="180" y="132" text-anchor="middle" font-family="Apple SD Gothic Neo, Malgun Gothic, sans-serif" font-size="14" font-weight="700" fill="#FFFFFF">기능</text>
  <rect x="330" y="100" width="200" height="50" rx="10" fill="#1E3A8A"/>
  <text x="430" y="132" text-anchor="middle" font-family="Apple SD Gothic Neo, Malgun Gothic, sans-serif" font-size="14" font-weight="700" fill="#FFFFFF">기반 기술</text>
  <rect x="540" y="100" width="200" height="50" rx="10" fill="#1E3A8A"/>
  <text x="640" y="132" text-anchor="middle" font-family="Apple SD Gothic Neo, Malgun Gothic, sans-serif" font-size="14" font-weight="700" fill="#FFFFFF">출처</text>
  <rect x="750" y="100" width="200" height="50" rx="10" fill="#1E3A8A"/>
  <text x="850" y="132" text-anchor="middle" font-family="Apple SD Gothic Neo, Malgun Gothic, sans-serif" font-size="14" font-weight="700" fill="#FFFFFF">Pet 적용</text>
  <rect x="960" y="100" width="200" height="50" rx="10" fill="#1E3A8A"/>
  <text x="1060" y="132" text-anchor="middle" font-family="Apple SD Gothic Neo, Malgun Gothic, sans-serif" font-size="14" font-weight="700" fill="#FFFFFF">단계</text>

  <g font-family="Apple SD Gothic Neo, Malgun Gothic, sans-serif" font-size="13">
    <rect x="40" y="160" width="1120" height="48" rx="8" fill="#FFFFFF" stroke="#E2E8F0"/>
    <text x="180" y="190" text-anchor="middle" fill="#0F172A">행동 분석/이상 탐지</text>
    <text x="430" y="190" text-anchor="middle" fill="#475569">Behavior AI</text>
    <text x="640" y="190" text-anchor="middle" fill="#1D4ED8">자람이</text>
    <text x="850" y="190" text-anchor="middle" fill="#5B21B6">Pet 행동</text>
    <text x="1060" y="190" text-anchor="middle" fill="#7C3AED">Tech Dev</text>

    <rect x="40" y="218" width="1120" height="48" rx="8" fill="#F8FAFC" stroke="#E2E8F0"/>
    <text x="180" y="248" text-anchor="middle" fill="#0F172A">케어로그 누적</text>
    <text x="430" y="248" text-anchor="middle" fill="#475569">Care Log Engine</text>
    <text x="640" y="248" text-anchor="middle" fill="#1D4ED8">전 도메인</text>
    <text x="850" y="248" text-anchor="middle" fill="#5B21B6">평생 로그</text>
    <text x="1060" y="248" text-anchor="middle" fill="#7C3AED">Tech Dev</text>

    <rect x="40" y="276" width="1120" height="48" rx="8" fill="#FFFFFF" stroke="#E2E8F0"/>
    <text x="180" y="306" text-anchor="middle" fill="#0F172A">건강 모니터링</text>
    <text x="430" y="306" text-anchor="middle" fill="#475569">Health Track</text>
    <text x="640" y="306" text-anchor="middle" fill="#047857">시니어</text>
    <text x="850" y="306" text-anchor="middle" fill="#5B21B6">활동/이상</text>
    <text x="1060" y="306" text-anchor="middle" fill="#7C3AED">Research</text>

    <rect x="40" y="334" width="1120" height="48" rx="8" fill="#F8FAFC" stroke="#E2E8F0"/>
    <text x="180" y="364" text-anchor="middle" fill="#0F172A">환경 맥락 분석</text>
    <text x="430" y="364" text-anchor="middle" fill="#475569">Env Analysis</text>
    <text x="640" y="364" text-anchor="middle" fill="#B45309">베지케어</text>
    <text x="850" y="364" text-anchor="middle" fill="#5B21B6">생활 환경</text>
    <text x="1060" y="364" text-anchor="middle" fill="#7C3AED">Research</text>

    <rect x="40" y="392" width="1120" height="48" rx="8" fill="#FFFFFF" stroke="#E2E8F0"/>
    <text x="180" y="422" text-anchor="middle" fill="#0F172A">로봇 AI Brain</text>
    <text x="430" y="422" text-anchor="middle" fill="#475569">Decision Core</text>
    <text x="640" y="422" text-anchor="middle" fill="#64748B">Future</text>
    <text x="850" y="422" text-anchor="middle" fill="#5B21B6">돌봄 로봇</text>
    <text x="1060" y="422" text-anchor="middle" fill="#B45309">Vision</text>
  </g>
  <text x="600" y="490" text-anchor="middle" font-family="Apple SD Gothic Neo, Malgun Gothic, sans-serif" font-size="12" fill="#94A3B8">상용 출시 일정이 아닌, 실제 구현 가능한 기술 자산의 연구 로드맵입니다</text>
</svg>
