<svg width="1200" height="760" viewBox="0 0 1200 760" fill="none" xmlns="http://www.w3.org/2000/svg">
  <defs>
    <linearGradient id="bg" x1="0" y1="0" x2="1200" y2="760" gradientUnits="userSpaceOnUse">
      <stop stop-color="#F8FAFF"/>
      <stop offset="1" stop-color="#F1F5FF"/>
    </linearGradient>
    <linearGradient id="hub" x1="500" y1="260" x2="700" y2="470" gradientUnits="userSpaceOnUse">
      <stop stop-color="#2563EB"/>
      <stop offset="1" stop-color="#4F46E5"/>
    </linearGradient>
    <marker id="arrow" viewBox="0 0 10 10" refX="9" refY="5" markerWidth="7" markerHeight="7" orient="auto-start-reverse">
      <path d="M0 0L10 5L0 10Z" fill="#94A3B8"/>
    </marker>
  </defs>

  <rect width="1200" height="760" rx="28" fill="url(#bg)"/>

  <text x="600" y="56" text-anchor="middle" font-size="30" font-weight="800" fill="#1E3A8A">연계 사업 기회 구조</text>
  <text x="600" y="84" text-anchor="middle" font-size="16" font-weight="600" fill="#475569">코어 4축과 확장 2축이 파트너 허브를 중심으로 연결됩니다</text>

  <circle cx="600" cy="365" r="245" fill="none" stroke="#CBD5E1" stroke-width="2" stroke-dasharray="8 8"/>

  <circle cx="600" cy="365" r="104" fill="url(#hub)"/>
  <text x="600" y="352" text-anchor="middle" font-size="28" font-weight="800" fill="white">파트너 허브</text>
  <text x="600" y="381" text-anchor="middle" font-size="16" font-weight="700" fill="#E0E7FF">마켓플레이스</text>
  <text x="600" y="404" text-anchor="middle" font-size="13" font-weight="600" fill="#DBEAFE">입점 · 제휴 · 매칭 · 실행</text>

  <line x1="600" y1="270" x2="600" y2="170" stroke="#94A3B8" stroke-width="3" marker-end="url(#arrow)"/>
  <line x1="682" y1="304" x2="858" y2="228" stroke="#94A3B8" stroke-width="3" marker-end="url(#arrow)"/>
  <line x1="682" y1="426" x2="858" y2="502" stroke="#94A3B8" stroke-width="3" marker-end="url(#arrow)"/>
  <line x1="600" y1="460" x2="600" y2="560" stroke="#94A3B8" stroke-width="3" marker-end="url(#arrow)"/>
  <line x1="518" y1="426" x2="342" y2="502" stroke="#94A3B8" stroke-width="3" marker-end="url(#arrow)"/>
  <line x1="518" y1="304" x2="342" y2="228" stroke="#94A3B8" stroke-width="3" marker-end="url(#arrow)"/>

  <rect x="450" y="92" width="300" height="78" rx="16" fill="white" stroke="#BFDBFE" stroke-width="2"/>
  <text x="600" y="124" text-anchor="middle" font-size="24" font-weight="800" fill="#1F2937">에듀케어로그</text>
  <text x="600" y="146" text-anchor="middle" font-size="13" font-weight="600" fill="#475569">자람이 특수교육 → 공교육·사교육 맞춤형 확장</text>

  <rect x="850" y="170" width="280" height="96" rx="16" fill="white" stroke="#BFDBFE" stroke-width="2"/>
  <text x="990" y="205" text-anchor="middle" font-size="24" font-weight="800" fill="#1F2937">토탈케어로그</text>
  <text x="990" y="229" text-anchor="middle" font-size="13" font-weight="600" fill="#475569">의료·정신건강·항암 통합</text>
  <text x="990" y="248" text-anchor="middle" font-size="12" font-weight="600" fill="#64748B">코어 4축</text>

  <rect x="850" y="494" width="280" height="96" rx="16" fill="white" stroke="#BFDBFE" stroke-width="2"/>
  <text x="990" y="529" text-anchor="middle" font-size="24" font-weight="800" fill="#1F2937">시니어앤라이프</text>
  <text x="990" y="553" text-anchor="middle" font-size="13" font-weight="600" fill="#475569">요양·재가·가족·의료 운영 연결</text>
  <text x="990" y="572" text-anchor="middle" font-size="12" font-weight="600" fill="#64748B">코어 4축</text>

  <rect x="450" y="560" width="300" height="78" rx="16" fill="white" stroke="#BFDBFE" stroke-width="2"/>
  <text x="600" y="592" text-anchor="middle" font-size="24" font-weight="800" fill="#1F2937">베지케어</text>
  <text x="600" y="614" text-anchor="middle" font-size="13" font-weight="600" fill="#475569">항암·만성 회복기 식단/영양 관리 연계</text>

  <rect x="70" y="494" width="280" height="96" rx="16" fill="white" stroke="#BFDBFE" stroke-width="2"/>
  <text x="210" y="529" text-anchor="middle" font-size="24" font-weight="800" fill="#1F2937">자람이</text>
  <text x="210" y="553" text-anchor="middle" font-size="13" font-weight="600" fill="#475569">발달·행동 케어로그 표준화</text>
  <text x="210" y="572" text-anchor="middle" font-size="12" font-weight="600" fill="#64748B">코어 4축</text>

  <rect x="70" y="170" width="280" height="96" rx="16" fill="white" stroke="#BFDBFE" stroke-width="2"/>
  <text x="210" y="205" text-anchor="middle" font-size="24" font-weight="800" fill="#1F2937">국제결혼</text>
  <text x="210" y="229" text-anchor="middle" font-size="13" font-weight="600" fill="#475569">정착·법률·건강 맥락 데이터 연결</text>
  <text x="210" y="248" text-anchor="middle" font-size="12" font-weight="600" fill="#64748B">코어 4축</text>

  <rect x="190" y="686" width="820" height="38" rx="19" fill="#E0E7FF"/>
  <text x="600" y="710" text-anchor="middle" font-size="15" font-weight="700" fill="#3730A3">AI디지털케어로그: 기록 표준화 → 분석 → 추천·매칭 → 실행·환류</text>
</svg>
